<svg xmlns="http://www.w3.org/2000/svg" viewBox="0 0 349.61 60.96"><defs><style>.cls-1{fill:#414242;}.cls-2{fill:#4f8165;}</style></defs><g id="レイヤー_2" data-name="レイヤー 2"><g id="Layer_1" data-name="Layer 1"><path class="cls-1" d="M7.72.06H19.35l9.23,24.3L38.35.06H50.1L57,45.52H45.16L41.84,19.36h-.12L30.81,45.52h-4.7L15.68,19.36h-.13L11.76,45.52H0Z"/><path class="cls-1" d="M95.38,45.52h-11V42.09h-.12a8.54,8.54,0,0,1-4,3.37,13.53,13.53,0,0,1-5.31,1.09,14.83,14.83,0,0,1-6.29-1.33,15.44,15.44,0,0,1-5-3.59,16,16,0,0,1-3.22-5.27A17.54,17.54,0,0,1,59.33,30a17.26,17.26,0,0,1,1.15-6.3,16.76,16.76,0,0,1,3.16-5.25,14.76,14.76,0,0,1,11.19-4.91,14.53,14.53,0,0,1,5.27,1,10.62,10.62,0,0,1,4.31,3v-3h11ZM77.72,23.09a7.14,7.14,0,0,0-3,.58,7,7,0,0,0-2.21,1.5,6.51,6.51,0,0,0-1.38,2.2,7.63,7.63,0,0,0-.48,2.72A7,7,0,0,0,72.51,35a6.72,6.72,0,0,0,5.21,2,6.75,6.75,0,0,0,5.22-2,7,7,0,0,0,1.83-4.94,7.63,7.63,0,0,0-.48-2.72,6.38,6.38,0,0,0-1.39-2.2,6.81,6.81,0,0,0-2.2-1.5A7.14,7.14,0,0,0,77.72,23.09Z"/><path class="cls-1" d="M112.9,25.75l11.39-11.16h15l-15.5,14.29,16.46,16.64H124.9l-12-12.6v12.6h-11L101.9,0h11Z"/><path class="cls-1" d="M172.77,31.9H149.68A7,7,0,0,0,151.4,37a8.17,8.17,0,0,0,8.2,1.12,5.34,5.34,0,0,0,2.2-2.2h10.55a12.8,12.8,0,0,1-2.2,4.73A13.39,13.39,0,0,1,166.47,44a16.77,16.77,0,0,1-4.67,1.92,20.94,20.94,0,0,1-5.18.64,22.47,22.47,0,0,1-7.15-1.09,16.32,16.32,0,0,1-5.67-3.16,14.46,14.46,0,0,1-3.73-5.16,17.22,17.22,0,0,1-1.36-7A18,18,0,0,1,140,23.15,14.6,14.6,0,0,1,143.5,18a15.8,15.8,0,0,1,5.4-3.26,21.86,21.86,0,0,1,14.11.06,14.65,14.65,0,0,1,5.3,3.44,15,15,0,0,1,3.32,5.4,21,21,0,0,1,1.14,7.14Zm-10.19-6.33a5.54,5.54,0,0,0-2.2-3.56,6.49,6.49,0,0,0-4-1.33,7.36,7.36,0,0,0-4.22,1.24,5.52,5.52,0,0,0-2.29,3.65Z"/><path class="cls-1" d="M189.7,35.51h14.17v10h-26V.06H189.7Z"/><path class="cls-1" d="M239.54,31.9H216.45A7,7,0,0,0,218.17,37a8.17,8.17,0,0,0,8.2,1.12,5.4,5.4,0,0,0,2.2-2.2h10.55a13,13,0,0,1-2.2,4.73A13.53,13.53,0,0,1,233.24,44a17,17,0,0,1-4.67,1.92,21,21,0,0,1-5.19.64,22.56,22.56,0,0,1-7.15-1.09,16.37,16.37,0,0,1-5.66-3.16,14.48,14.48,0,0,1-3.74-5.16,17.38,17.38,0,0,1-1.36-7,18,18,0,0,1,1.27-6.94A14.5,14.5,0,0,1,210.27,18a15.66,15.66,0,0,1,5.39-3.26,20.17,20.17,0,0,1,6.94-1.14,20,20,0,0,1,7.17,1.2,14.69,14.69,0,0,1,5.31,3.44,15,15,0,0,1,3.31,5.4,20.73,20.73,0,0,1,1.15,7.14Zm-10.19-6.33a5.58,5.58,0,0,0-2.2-3.56,6.51,6.51,0,0,0-4-1.33,7.31,7.31,0,0,0-4.22,1.24,5.49,5.49,0,0,0-2.29,3.65Z"/><path class="cls-1" d="M278.12,45.52h-11V42.09H267a8.56,8.56,0,0,1-4,3.37,13.57,13.57,0,0,1-5.31,1.09,14.88,14.88,0,0,1-6.3-1.33,15.44,15.44,0,0,1-4.95-3.59,16.14,16.14,0,0,1-3.22-5.27A17.76,17.76,0,0,1,242.06,30a17.47,17.47,0,0,1,1.15-6.3,17,17,0,0,1,3.16-5.25,14.76,14.76,0,0,1,11.19-4.91,14.49,14.49,0,0,1,5.27,1,10.62,10.62,0,0,1,4.31,3v-3h11ZM260.45,23.09a7.17,7.17,0,0,0-3,.58,6.81,6.81,0,0,0-2.2,1.5,6.38,6.38,0,0,0-1.39,2.2,7.63,7.63,0,0,0-.48,2.72A7,7,0,0,0,255.24,35a7.83,7.83,0,0,0,10.43,0,7,7,0,0,0,1.84-4.94,7.42,7.42,0,0,0-.49-2.72,6.51,6.51,0,0,0-1.38-2.2,7,7,0,0,0-2.21-1.5A7.14,7.14,0,0,0,260.45,23.09Z"/><path class="cls-1" d="M295.46,18.09h.12a9.11,9.11,0,0,1,4.07-3.41,13.16,13.16,0,0,1,5.27-1.11,14.76,14.76,0,0,1,6.33,1.35,15.53,15.53,0,0,1,4.95,3.62,16.59,16.59,0,0,1,3.2,5.28,17.75,17.75,0,0,1,1.14,6.33,17.43,17.43,0,0,1-1.14,6.33,16.89,16.89,0,0,1-3.17,5.21,14.48,14.48,0,0,1-4.88,3.56,15.19,15.19,0,0,1-6.31,1.3,14.94,14.94,0,0,1-5.27-1,10.35,10.35,0,0,1-4.31-3V61h-11V14.59h11Zm6.69,5a7.14,7.14,0,0,0-3,.58,6.81,6.81,0,0,0-2.2,1.5,6.38,6.38,0,0,0-1.39,2.2,7.63,7.63,0,0,0-.48,2.72A7,7,0,0,0,296.93,35a7.84,7.84,0,0,0,10.44,0,7,7,0,0,0,1.83-4.94,7.63,7.63,0,0,0-.48-2.72,6.51,6.51,0,0,0-1.38-2.2,7,7,0,0,0-2.2-1.5A7.25,7.25,0,0,0,302.15,23.09Z"/><path class="cls-1" d="M345,22.55a13.68,13.68,0,0,0-2.9-1.08,12.19,12.19,0,0,0-3-.43,5.58,5.58,0,0,0-1.09.12,5.36,5.36,0,0,0-1.11.37,2.94,2.94,0,0,0-.88.63,1.4,1.4,0,0,0-.36,1,1.57,1.57,0,0,0,.57,1.27,4.26,4.26,0,0,0,1.36.75,12.18,12.18,0,0,0,1.63.43l1.38.27a17.2,17.2,0,0,1,3.56,1.05A10.21,10.21,0,0,1,347,28.7a7.79,7.79,0,0,1,1.89,2.62,8.87,8.87,0,0,1,.7,3.71,10.15,10.15,0,0,1-1.27,5.24A10.64,10.64,0,0,1,345,43.83a15,15,0,0,1-4.68,2.05,21.39,21.39,0,0,1-5.3.67,23.16,23.16,0,0,1-6.48-.91,23.46,23.46,0,0,1-6-2.65l4-7.66a13.86,13.86,0,0,0,1.93,1.15q1.08.54,2.22,1a16.52,16.52,0,0,0,2.33.73,9.78,9.78,0,0,0,2.2.27,5.82,5.82,0,0,0,1.14-.12,3.76,3.76,0,0,0,1.12-.42,3.16,3.16,0,0,0,.84-.73,1.7,1.7,0,0,0,.33-1.08,1.76,1.76,0,0,0-.6-1.42,4.74,4.74,0,0,0-1.57-.84,16.18,16.18,0,0,0-2.2-.58c-.82-.16-1.66-.36-2.5-.6a23.14,23.14,0,0,1-2.5-.87,6.9,6.9,0,0,1-2.2-1.45A7,7,0,0,1,325.49,28a8.87,8.87,0,0,1-.6-3.5,9.83,9.83,0,0,1,1.17-4.91,10.38,10.38,0,0,1,3.11-3.44,13.31,13.31,0,0,1,4.37-2,19.86,19.86,0,0,1,5-.63,30.15,30.15,0,0,1,5.22.45,20.65,20.65,0,0,1,5,1.54Z"/><polygon class="cls-2" points="141.54 9.65 126.62 9.65 134.6 1.68 141.54 9.65"/></g></g></svg>